HIERARCHY
ROOT Bip01_Pelvis
{
	OFFSET 0.000000 0.851314 0.000000
	CHANNELS 6 Xposition Yposition Zposition Zrotation Yrotation Xrotation 
	JOINT BN_Tail_01
	{
		OFFSET 0.000187 0.028044 -0.052993
		CHANNELS 3 Zrotation Yrotation Xrotation
		JOINT BN_Tail_02
		{
			OFFSET 0.001566 -0.130999 -0.253502
			CHANNELS 3 Zrotation Yrotation Xrotation
			JOINT BN_Tail_03
			{
				OFFSET 0.002136 -0.121295 -0.345684
				CHANNELS 3 Zrotation Yrotation Xrotation
				End Site #name: BN_Tail_04
				{
					OFFSET 0.001866 -0.107952 -0.302019
				}
			}
		}
	}
	JOINT Bip01_Spine
	{
		OFFSET -0.000478 -0.001860 0.056081
		CHANNELS 3 Zrotation Yrotation Xrotation
		JOINT Bip01_R_Thigh
		{
			OFFSET -0.103206 -0.004950 -0.056319
			CHANNELS 3 Zrotation Yrotation Xrotation
			JOINT Bip01_R_Calf
			{
				OFFSET -0.035168 -0.334151 0.101862
				CHANNELS 3 Zrotation Yrotation Xrotation
				JOINT Bip01_R_HorseLink
				{
					OFFSET 0.042560 -0.277817 -0.272295
					CHANNELS 3 Zrotation Yrotation Xrotation
					JOINT Bip01_R_Foot
					{
						OFFSET -0.011909 -0.177327 0.020479
						CHANNELS 3 Zrotation Yrotation Xrotation
						JOINT Bip01_R_Toe0
						{
							OFFSET -0.043984 -0.054975 0.103623
							CHANNELS 3 Zrotation Yrotation Xrotation
							End Site #name: Bip01_R_Toe0Nub
							{
								OFFSET -0.004664 0.000043 0.010843
							}
						}
					}
				}
			}
		}
		JOINT Bip01_L_Thigh
		{
			OFFSET 0.101192 -0.005184 -0.055432
			CHANNELS 3 Zrotation Yrotation Xrotation
			JOINT Bip01_L_Calf
			{
				OFFSET 0.033910 -0.334151 0.102288
				CHANNELS 3 Zrotation Yrotation Xrotation
				JOINT Bip01_L_HorseLink
				{
					OFFSET -0.039191 -0.277817 -0.272801
					CHANNELS 3 Zrotation Yrotation Xrotation
					JOINT Bip01_L_Foot
					{
						OFFSET 0.011657 -0.177327 0.020623
						CHANNELS 3 Zrotation Yrotation Xrotation
						JOINT Bip01_L_Toe0
						{
							OFFSET 0.042702 -0.054975 0.104158
							CHANNELS 3 Zrotation Yrotation Xrotation
							End Site #name: Bip01_L_Toe0Nub
							{
								OFFSET 0.004530 0.000043 0.010900
							}
						}
					}
				}
			}
		}
		JOINT Bip01_Spine1
		{
			OFFSET -0.004049 0.013815 0.199289
			CHANNELS 3 Zrotation Yrotation Xrotation
			JOINT Bip01_Spine2
			{
				OFFSET -0.001941 -0.020172 0.314191
				CHANNELS 3 Zrotation Yrotation Xrotation
				JOINT Bip01_Neck
				{
					OFFSET -0.002107 -0.030863 0.341147
					CHANNELS 3 Zrotation Yrotation Xrotation
					JOINT Bip01_R_Clavicle
					{
						OFFSET -0.091120 0.063530 -0.181116
						CHANNELS 3 Zrotation Yrotation Xrotation
						JOINT Bip01_R_UpperArm
						{
							OFFSET -0.060873 -0.172290 0.208221
							CHANNELS 3 Zrotation Yrotation Xrotation
							JOINT Bip01_R_Forearm
							{
								OFFSET 0.015801 -0.250138 -0.185806
								CHANNELS 3 Zrotation Yrotation Xrotation
								JOINT Bip01_R_Hand
								{
									OFFSET 0.023841 -0.325029 0.018043
									CHANNELS 3 Zrotation Yrotation Xrotation
									JOINT Bip01_R_Finger0
									{
										OFFSET 0.022350 -0.094798 -0.005705
										CHANNELS 3 Zrotation Yrotation Xrotation
										End Site #name: Bip01_R_Finger0Nub
										{
											OFFSET -0.070772 -0.002725 0.131491
										}
									}
								}
							}
						}
					}
					JOINT Bip01_L_Clavicle
					{
						OFFSET 0.092652 0.058569 -0.182004
						CHANNELS 3 Zrotation Yrotation Xrotation
						JOINT Bip01_L_UpperArm
						{
							OFFSET 0.058294 -0.172291 0.208958
							CHANNELS 3 Zrotation Yrotation Xrotation
							JOINT Bip01_L_Forearm
							{
								OFFSET -0.013505 -0.250138 -0.185986
								CHANNELS 3 Zrotation Yrotation Xrotation
								JOINT Bip01_L_Hand
								{
									OFFSET -0.024064 -0.325029 0.017747
									CHANNELS 3 Zrotation Yrotation Xrotation
									JOINT Bip01_L_Finger0
									{
										OFFSET -0.022278 -0.094798 -0.005981
										CHANNELS 3 Zrotation Yrotation Xrotation
										End Site #name: Bip01_L_Finger0Nub
										{
											OFFSET 0.069141 -0.002725 0.132355
										}
									}
								}
							}
						}
					}
					JOINT Bip01_Neck1
					{
						OFFSET -0.002498 0.107106 0.116267
						CHANNELS 3 Zrotation Yrotation Xrotation
						JOINT Bip01_Head
						{
							OFFSET -0.000596 0.117028 0.096504
							CHANNELS 3 Zrotation Yrotation Xrotation
							End Site #name: BN_Beard_L
							{
								OFFSET 0.040925 -0.111506 0.266375
							}
							End Site #name: BN_Beard_R
							{
								OFFSET -0.044216 -0.111505 0.265849
							}
							JOINT BN_Mouth
							{
								OFFSET -0.000044 -0.036876 0.006908
								CHANNELS 3 Zrotation Yrotation Xrotation
								JOINT BN_Thouge_01
								{
									OFFSET -0.000833 -0.119228 0.134723
									CHANNELS 3 Zrotation Yrotation Xrotation
									End Site #name: BN_Thouge_02
									{
										OFFSET -0.000347 -0.028139 0.056177
									}
								}
							}
							End Site #name: BN_Ear_L
							{
								OFFSET 0.087868 0.057358 0.054051
							}
							End Site #name: BN_Ear_R
							{
								OFFSET -0.088534 0.057359 0.052961
							}
							End Site #name: Bip01_HeadNub
							{
								OFFSET -0.002052 0.000000 0.332235
							}
						}
					}
				}
			}
		}
	}
}
MOTION
Frames: 9
Frame Time: 0.041667
0.000000 0.152244 0.000000 -6.972822 15.279235 -58.178056 -5.782542 35.613673 46.789597 -34.660919 31.577374 -57.784301 11.921003 -14.924744 -38.153643 -5.778592 -14.100314 -4.898160 -14.637728 -4.953372 -7.757019 8.839886 -5.565648 83.429233 -12.607974 -7.978754 -95.484410 13.474925 -20.403960 67.426263 14.650522 41.631449 21.180262 -2.481150 -1.081419 -2.024730 -10.783686 19.337415 70.033496 16.660475 16.557299 -105.277048 -20.379311 26.009492 93.072821 14.590627 -21.628242 -25.370963 0.969390 3.567844 16.759171 -1.035670 -4.308569 32.799554 1.509029 -3.550081 1.502848 2.077771 1.462043 2.629700 -14.291992 7.825823 -11.877772 -3.689903 -5.253318 -44.544920 -19.549510 -3.526957 -11.222788 52.901913 -13.622305 94.970178 -3.789693 -5.591184 -2.285412 -4.826201 3.613904 1.949614 -1.527345 2.063937 -33.849682 0.305455 -1.397768 5.773013 -30.149208 0.036175 54.080394 3.358246 -2.475412 -7.516141 -12.712703 -1.641974 15.621294 10.137726 14.103420 -13.440730 4.398971 7.415746 7.387058 
0.000056 0.152915 0.000243 -7.289210 15.020110 -58.742202 -5.669653 35.646331 46.846924 -34.390521 31.341382 -58.008399 11.699332 -14.531137 -38.472545 -5.787776 -14.030567 -4.839070 -14.485534 -4.873479 -7.251471 8.836764 -5.705535 83.570260 -12.760741 -8.185472 -95.636705 13.434081 -20.384517 67.301312 15.702925 42.308721 22.531864 -2.185119 -0.942091 -1.724800 -10.769866 19.358295 70.356171 16.324879 16.094803 -105.539057 -19.982598 26.039994 92.954415 15.472205 -22.069244 -26.732441 1.014529 3.911287 16.236349 -0.948311 -4.157818 33.175248 1.772055 -3.556369 1.614988 2.084440 1.222359 3.272148 -14.303835 7.704517 -12.406304 -4.133045 -5.332701 -43.601128 -19.284088 -3.231675 -10.553174 53.602504 -12.505524 94.815725 -4.273363 -5.697982 -1.103768 -4.581781 3.413517 0.679981 -1.455938 2.051708 -33.264899 0.820043 -1.496367 5.930101 -30.504000 -0.178969 54.519859 2.834912 -2.094423 -7.815368 -11.813191 -2.434212 15.127084 9.897993 13.920751 -13.635287 5.062173 8.245638 8.982164 
0.000093 0.154582 0.000595 -7.768501 14.322970 -59.797293 -5.291787 36.126591 47.232256 -33.579632 30.746765 -58.226152 11.597257 -14.109482 -39.318963 -5.397304 -14.092392 -4.516850 -14.084577 -4.675455 -6.655682 8.801390 -5.638816 83.735402 -13.269881 -8.812880 -95.440728 13.720085 -20.201983 67.149365 15.330003 42.535257 21.948499 -1.820685 -0.728475 -0.934872 -10.739730 19.332983 70.585062 16.054117 15.681430 -105.664255 -20.227146 25.874177 92.644185 15.490033 -21.462120 -26.944158 1.063531 4.312287 15.606689 -0.816118 -3.890758 33.507607 1.692731 -3.362035 1.958865 2.315848 1.120723 4.216117 -14.102339 7.468401 -12.991538 -4.683774 -5.406095 -42.156725 -19.413974 -3.157849 -10.365764 54.167650 -11.592881 94.696385 -4.762602 -5.764664 0.140867 -4.151684 3.081816 -0.615316 -1.359588 2.014839 -32.214361 1.001670 -1.576877 6.169369 -30.578412 -0.081138 54.696548 2.500790 -1.848721 -7.714892 -11.574468 -2.860300 13.804242 9.694247 13.666481 -13.286905 5.661440 9.678430 6.602424 
0.000129 0.156070 0.001096 -8.082613 13.695160 -60.546003 -4.960961 36.312913 47.594870 -32.954091 30.310165 -58.336345 10.896487 -12.963837 -40.324941 -4.988867 -14.075674 -4.578923 -13.973984 -4.623433 -5.786127 8.792790 -5.387019 83.750850 -13.348879 -8.920795 -95.341594 13.823609 -20.024314 66.825421 16.333498 42.950451 23.278874 -1.563011 -0.543368 0.119559 -10.732005 19.390053 70.619596 15.700136 15.130456 -105.853234 -20.293154 25.802166 92.441493 15.368239 -21.690708 -26.674632 1.078632 4.592856 14.991581 -0.744444 -3.752360 33.957800 1.342494 -3.124583 2.291899 2.563833 1.005531 5.222962 -13.676039 7.146379 -13.452404 -5.150730 -5.436874 -40.691568 -19.288396 -3.034812 -10.084876 54.788420 -10.402342 94.422872 -5.055608 -5.606417 1.330117 -3.760778 2.796416 -1.617824 -1.252989 1.983228 -31.255069 1.696983 -1.619017 6.003279 -30.915955 -0.126994 55.203278 2.081418 -1.507292 -8.511855 -10.456048 -3.083338 13.062964 9.227123 13.146876 -13.474090 6.133351 11.067170 3.979841 
0.000150 0.159543 0.001788 -8.257735 13.053911 -60.894732 -4.740659 36.452697 47.505408 -32.706858 30.218603 -58.358356 10.171416 -11.924525 -40.925902 -4.305530 -14.108081 -4.844269 -13.909677 -4.604923 -5.315473 8.798480 -5.109837 83.879687 -13.624981 -9.266079 -94.895424 14.480697 -19.490022 66.317788 15.170012 41.665299 21.896134 -1.400131 -0.413947 0.975857 -10.729082 19.471577 70.602034 15.430694 14.639711 -105.766073 -20.040123 25.725811 91.995787 15.127828 -22.112360 -26.150333 1.065924 4.884047 14.119376 -0.732032 -3.715968 34.397902 0.641654 -2.710368 2.874710 2.958763 1.078074 6.123525 -13.099910 6.722909 -14.120600 -5.673659 -5.450680 -38.920286 -19.229915 -3.066658 -10.163625 55.515689 -9.047096 94.164031 -5.196366 -5.329528 2.365511 -3.202019 2.410176 -2.624624 -1.266457 1.889112 -30.055491 2.429758 -1.700319 5.977890 -31.111989 -0.401793 55.345823 1.342740 -0.929014 -9.406507 -9.901899 -3.610560 12.053817 8.917823 12.841775 -13.550966 6.182229 12.554128 -1.625844 
0.000195 0.161856 0.002678 -8.298843 12.734475 -60.833285 -4.673712 36.283130 47.290322 -32.648651 30.204472 -58.397826 9.542866 -11.156793 -40.980742 -3.861010 -14.248642 -5.546006 -13.923985 -4.646808 -4.713143 8.830357 -4.752120 84.040531 -13.862928 -9.609764 -94.518167 15.157642 -18.991200 65.983713 14.664342 40.936745 21.337228 -1.205559 -0.277024 1.922410 -10.736247 19.582444 70.608488 15.131551 14.109976 -105.692425 -19.964591 25.629730 91.633028 14.533669 -21.718817 -25.258096 1.072024 5.172771 13.684678 -0.626578 -3.466567 34.480763 0.288537 -2.450545 2.945050 3.228280 0.910109 7.291254 -12.649231 6.376069 -14.689223 -6.091133 -5.371733 -37.068225 -19.219687 -2.811278 -9.556376 56.270234 -6.890887 93.351336 -5.372323 -5.168107 3.252689 -2.937060 2.227972 -2.699646 -1.131523 1.852316 -28.949645 2.500791 -1.742463 6.106702 -30.921819 -0.795890 54.812495 0.461901 -0.284406 -9.900281 -8.624670 -3.844812 11.272980 8.000924 11.989068 -14.918334 5.563540 12.750162 -6.905455 
0.000241 0.165857 0.003794 -8.647295 11.536439 -60.934223 -4.286513 36.578091 46.938595 -32.501645 30.130525 -58.961366 8.962472 -10.280989 -41.467891 -2.450479 -14.160716 -5.963033 -14.177917 -4.748540 -4.212555 8.838617 -4.319184 84.025706 -13.876128 -9.615352 -94.067840 15.745779 -18.506047 65.576637 13.914487 39.677667 20.500792 -1.233473 -0.210012 2.717146 -10.759942 19.661629 70.313051 15.016830 13.798751 -105.295164 -20.364360 25.415234 91.233557 13.841185 -21.123767 -24.247755 1.083525 5.393952 13.520841 -0.674109 -3.525862 34.032462 -0.009278 -2.019342 3.641951 3.384490 0.860861 7.838294 -12.115775 5.962229 -15.407164 -6.489368 -5.227312 -34.921082 -19.762735 -2.655507 -9.149228 57.617459 -4.142675 92.874661 -5.513241 -5.032703 3.947500 -2.714232 2.091160 -3.456169 -1.130258 1.751415 -27.557982 2.850198 -1.804219 6.179964 -30.797976 -1.111440 54.430533 -0.472039 0.383596 -11.426150 -6.604224 -4.449550 9.700129 7.024464 10.755387 -15.493102 3.997468 10.850314 -13.222245 
0.000306 0.168924 0.005144 -8.735025 10.699131 -61.036347 -4.107348 36.872040 46.597552 -32.137036 29.837508 -59.209148 8.043767 -9.170391 -41.426388 -1.345000 -14.198062 -5.996720 -14.407586 -4.827376 -4.165416 8.839922 -3.981161 84.041160 -14.092920 -9.864918 -93.572726 16.380757 -17.929960 65.019504 13.857946 38.599833 20.613692 -1.270612 -0.172038 3.117014 -10.820504 19.940021 70.018087 14.957720 13.586074 -104.925069 -20.768906 25.241623 90.954340 13.485470 -20.803146 -23.732996 1.100239 5.754173 13.116763 -0.849460 -3.852054 33.578301 -0.355735 -1.589509 4.752866 3.522914 1.046940 7.718720 -11.723533 5.696686 -15.805513 -6.843618 -5.114957 -33.187206 -20.558583 -2.513440 -8.769894 59.398585 -1.137048 92.820344 -5.417205 -4.922064 3.893583 -2.941472 2.252207 -3.461842 -1.076707 1.716889 -26.858044 3.218838 -2.102151 7.124198 -30.789227 -2.349695 53.714124 -0.853457 0.658391 -12.169594 -4.243732 -4.104216 6.909632 5.701317 8.907754 -15.953623 2.353241 7.440231 -17.588098 
0.000390 0.171929 0.006655 -9.082944 9.841832 -61.264924 -3.824644 37.309694 46.385286 -31.910218 29.652855 -59.775737 7.174496 -7.893285 -42.546965 -0.320797 -14.234361 -6.143238 -14.819025 -4.969404 -3.772961 8.834947 -3.468273 84.155887 -13.987089 -9.694679 -93.137321 17.014687 -17.266936 64.290645 13.774150 37.315845 20.724195 -1.274068 -0.108622 3.754046 -10.811077 19.898469 69.845784 14.941585 13.426072 -104.444584 -21.308319 24.799944 90.075383 12.462008 -20.034747 -22.158837 1.124732 5.761970 13.504249 -0.853609 -3.821772 33.528048 -0.307462 -1.493544 6.165986 3.400950 1.402928 6.456930 -11.243460 5.319608 -16.456351 -7.169094 -4.992695 -31.609326 -21.447006 -2.344604 -8.340697 61.029002 2.060221 92.576120 -5.067949 -5.086863 2.430620 -3.381942 2.558363 -3.579679 -1.067056 1.649411 -25.832021 3.141733 -2.088362 7.110439 -30.751630 -2.513288 53.564917 -0.532728 0.438340 -13.099882 -3.063520 -3.244526 4.241212 4.440111 7.088908 -16.398231 1.220451 4.261914 -19.505613 
